<svg xmlns="http://www.w3.org/2000/svg" style="display: none;"><symbol id="cow" viewBox="0 0 511.995 511.995"><title>cow</title><path style="fill:#A3603E;" d="M451.25,91.396H173.56l5.293,2.942L155.128,85.2c-14.188-5.753-30.372-3.376-42.313,6.196 l-26.033-8.678c-16.67-3.896-34,3.037-43.389,17.356L3.587,171.865c-7.489,13.182-2.872,29.947,10.309,37.436 c4.131,2.352,8.808,3.584,13.563,3.584h50.036c5.233,0,10.179,2.36,13.477,6.422l61.352,75.575c2.508,3.098,3.879,6.96,3.879,10.943 v132.684h34.711l23.092-116.448c1.718-8.001,8.791-13.72,16.974-13.72h194.236l26.033,26.033l-17.356,104.134h34.711l34.711-112.812 l-12.201-30.494c-3.306-8.279-3.306-17.512,0-25.79l12.201-30.494v-95.456C503.317,114.704,480,91.396,451.25,91.396z"/><g> <path style="fill:#8F5436;" d="M155.284,300.34c0.599,1.77,0.911,3.619,0.92,5.484v132.684h34.711l23.092-116.448 c1.718-8.001,8.791-13.72,16.974-13.72h194.236l26.033,26.033l-17.356,104.134h34.711l34.711-112.812l-12.201-30.494 c-3.306-8.279-3.306-17.512,0-25.79l12.201-30.494v-95.456c0-8.886-2.274-17.625-6.621-25.374 C424.062,238.919,248.189,284.338,155.284,300.34z"/> <path style="fill:#8F5436;" d="M57.129,99.353c-8.192-9.216-19.464-15.125-31.7-16.635H0.003c0,18.302,3.662,31.952,17.356,39.311 l22.415,9.138L57.129,99.353z"/> </g><g> <rect x="60.739" y="126.107" style="fill:#75462E;" width="17.356" height="17.356"/> <path style="fill:#75462E;" d="M474.099,221.424c-18.284-2.265-31.891-17.98-31.527-36.395v-6.526 c0.009-9.763-7.905-17.677-17.668-17.685c-0.009,0-0.009,0-0.017,0h-17.026c-4.79,0-8.678-3.888-8.678-8.678l0,0 c0-4.79,3.888-8.678,8.678-8.678h17.026c19.352,0,35.041,15.689,35.041,35.041v7.107c-0.252,8.886,5.944,16.661,14.665,18.397 c9.467,1.484,18.354-4.99,19.837-14.457c0.139-0.894,0.208-1.796,0.208-2.699V152.14c0-4.79,3.888-8.678,8.678-8.678l0,0 c4.79,0,8.678,3.888,8.678,8.678v34.711c0,19.169-15.533,34.711-34.703,34.72C476.225,221.572,475.157,221.52,474.099,221.424z"/> </g><g> <path style="fill:#8F5436;" d="M147.526,134.785h-17.356c-4.79,0-8.678-3.888-8.678-8.678s3.888-8.678,8.678-8.678h16.774 c5.493-0.807,13.086-3.853,20.323-18.223l-15.256-5.875c-11.16-4.591-23.925-2.838-33.436,4.591 c-3.567,3.202-9.06,2.898-12.262-0.668s-2.898-9.06,0.677-12.262c14.379-11.767,34.026-14.761,51.251-7.81l23.734,9.129 c4.469,1.718,6.708,6.743,4.981,11.212c0,0,0,0,0,0.009c-8.834,22.935-21.373,35.128-38.347,37.263 C148.247,134.82,147.882,134.82,147.526,134.785z"/> <path style="fill:#8F5436;" d="M451.25,343.053c-2.3,0-4.512-0.911-6.135-2.543l-45.498-45.498 c-11.429-11.359-17.833-26.832-17.79-42.947v-13.147c0-4.79,3.888-8.678,8.678-8.678c4.79,0,8.678,3.888,8.678,8.678v13.147 c-0.035,11.515,4.539,22.562,12.704,30.676l45.498,45.498c3.384,3.393,3.384,8.886,0,12.27 C455.754,342.141,453.55,343.053,451.25,343.053z"/> </g></symbol></svg>